<svg width="20" height="20" viewBox="0 0 20 20" fill="none" xmlns="http://www.w3.org/2000/svg">
<mask id="path-1-inside-1_1_17077" fill="white">
<path d="M13.034 11.7856C12.8919 11.7856 12.7556 11.842 12.6552 11.9425C12.5547 12.0429 12.4983 12.1792 12.4983 12.3213C12.4983 12.4634 12.5547 12.5996 12.6552 12.7001C12.7556 12.8006 12.8919 12.857 13.034 12.857H15.534C15.6761 12.857 15.8123 12.8006 15.9128 12.7001C16.0132 12.5996 16.0697 12.4634 16.0697 12.3213C16.0697 12.1792 16.0132 12.0429 15.9128 11.9425C15.8123 11.842 15.6761 11.7856 15.534 11.7856H13.034ZM1.42969 6.24986C1.42969 5.53946 1.71189 4.85815 2.21422 4.35582C2.71655 3.85349 3.39786 3.57129 4.10826 3.57129H15.8911C16.6015 3.57129 17.2828 3.85349 17.7852 4.35582C18.2875 4.85815 18.5697 5.53946 18.5697 6.24986V13.7499C18.5697 14.4603 18.2875 15.1416 17.7852 15.6439C17.2828 16.1462 16.6015 16.4284 15.8911 16.4284H4.10897C3.39857 16.4284 2.71727 16.1462 2.21494 15.6439C1.71261 15.1416 1.4304 14.4603 1.4304 13.7499L1.42969 6.24986ZM4.10826 4.64272C3.68202 4.64272 3.27324 4.81204 2.97184 5.11344C2.67044 5.41484 2.50112 5.82362 2.50112 6.24986V6.78557H17.4983V6.24986C17.4983 5.82362 17.3289 5.41484 17.0275 5.11344C16.7261 4.81204 16.3174 4.64272 15.8911 4.64272H4.10826ZM2.50112 13.7499C2.50112 14.1761 2.67044 14.5849 2.97184 14.8863C3.27324 15.1877 3.68202 15.357 4.10826 15.357H15.8911C16.3174 15.357 16.7261 15.1877 17.0275 14.8863C17.3289 14.5849 17.4983 14.1761 17.4983 13.7499V7.857H2.50183L2.50112 13.7499Z"/>
</mask>
<path d="M13.034 11.7856C12.8919 11.7856 12.7556 11.842 12.6552 11.9425C12.5547 12.0429 12.4983 12.1792 12.4983 12.3213C12.4983 12.4634 12.5547 12.5996 12.6552 12.7001C12.7556 12.8006 12.8919 12.857 13.034 12.857H15.534C15.6761 12.857 15.8123 12.8006 15.9128 12.7001C16.0132 12.5996 16.0697 12.4634 16.0697 12.3213C16.0697 12.1792 16.0132 12.0429 15.9128 11.9425C15.8123 11.842 15.6761 11.7856 15.534 11.7856H13.034ZM1.42969 6.24986C1.42969 5.53946 1.71189 4.85815 2.21422 4.35582C2.71655 3.85349 3.39786 3.57129 4.10826 3.57129H15.8911C16.6015 3.57129 17.2828 3.85349 17.7852 4.35582C18.2875 4.85815 18.5697 5.53946 18.5697 6.24986V13.7499C18.5697 14.4603 18.2875 15.1416 17.7852 15.6439C17.2828 16.1462 16.6015 16.4284 15.8911 16.4284H4.10897C3.39857 16.4284 2.71727 16.1462 2.21494 15.6439C1.71261 15.1416 1.4304 14.4603 1.4304 13.7499L1.42969 6.24986ZM4.10826 4.64272C3.68202 4.64272 3.27324 4.81204 2.97184 5.11344C2.67044 5.41484 2.50112 5.82362 2.50112 6.24986V6.78557H17.4983V6.24986C17.4983 5.82362 17.3289 5.41484 17.0275 5.11344C16.7261 4.81204 16.3174 4.64272 15.8911 4.64272H4.10826ZM2.50112 13.7499C2.50112 14.1761 2.67044 14.5849 2.97184 14.8863C3.27324 15.1877 3.68202 15.357 4.10826 15.357H15.8911C16.3174 15.357 16.7261 15.1877 17.0275 14.8863C17.3289 14.5849 17.4983 14.1761 17.4983 13.7499V7.857H2.50183L2.50112 13.7499Z" fill="#D22877"/>
<path d="M1.42969 6.24986H-0.0703125V6.25L1.42969 6.24986ZM4.10826 3.57129V2.07129V3.57129ZM1.4304 13.7499H2.9304V13.7497L1.4304 13.7499ZM4.10826 4.64272V3.14272V4.64272ZM2.50112 6.24986H1.00112H2.50112ZM2.50112 6.78557H1.00112V8.28557H2.50112V6.78557ZM17.4983 6.78557V8.28557H18.9983V6.78557H17.4983ZM17.4983 6.24986H18.9983H17.4983ZM2.50112 13.7499L1.00112 13.7497V13.7499H2.50112ZM17.4983 7.857H18.9983V6.357H17.4983V7.857ZM2.50183 7.857V6.357H1.00201L1.00183 7.85682L2.50183 7.857ZM13.034 11.7856V10.2856C12.4941 10.2856 11.9763 10.5 11.5945 10.8818L12.6552 11.9425L13.7158 13.0031C13.535 13.184 13.2897 13.2856 13.034 13.2856V11.7856ZM12.6552 11.9425L11.5945 10.8818C11.2127 11.2636 10.9983 11.7814 10.9983 12.3213H12.4983H13.9983C13.9983 12.577 13.8967 12.8223 13.7158 13.0031L12.6552 11.9425ZM12.4983 12.3213H10.9983C10.9983 12.8612 11.2127 13.379 11.5945 13.7608L12.6552 12.7001L13.7158 11.6394C13.8967 11.8203 13.9983 12.0655 13.9983 12.3213H12.4983ZM12.6552 12.7001L11.5945 13.7608C11.9763 14.1425 12.4941 14.357 13.034 14.357V12.857V11.357C13.2897 11.357 13.535 11.4586 13.7158 11.6394L12.6552 12.7001ZM13.034 12.857V14.357H15.534V12.857V11.357H13.034V12.857ZM15.534 12.857V14.357C16.0739 14.357 16.5917 14.1425 16.9734 13.7608L15.9128 12.7001L14.8521 11.6394C15.033 11.4586 15.2782 11.357 15.534 11.357V12.857ZM15.9128 12.7001L16.9734 13.7608C17.3552 13.379 17.5697 12.8612 17.5697 12.3213H16.0697H14.5697C14.5697 12.0655 14.6713 11.8203 14.8521 11.6394L15.9128 12.7001ZM16.0697 12.3213H17.5697C17.5697 11.7814 17.3552 11.2636 16.9734 10.8818L15.9128 11.9425L14.8521 13.0031C14.6713 12.8223 14.5697 12.577 14.5697 12.3213H16.0697ZM15.9128 11.9425L16.9734 10.8818C16.5917 10.5 16.0739 10.2856 15.534 10.2856V11.7856V13.2856C15.2782 13.2856 15.033 13.184 14.8521 13.0031L15.9128 11.9425ZM15.534 11.7856V10.2856H13.034V11.7856V13.2856H15.534V11.7856ZM1.42969 6.24986H2.92969C2.92969 5.93728 3.05386 5.63751 3.27488 5.41648L2.21422 4.35582L1.15356 3.29516C0.369929 4.0788 -0.0703125 5.14163 -0.0703125 6.24986H1.42969ZM2.21422 4.35582L3.27488 5.41648C3.49591 5.19546 3.79568 5.07129 4.10826 5.07129V3.57129V2.07129C3.00003 2.07129 1.9372 2.51153 1.15356 3.29516L2.21422 4.35582ZM4.10826 3.57129V5.07129H15.8911V3.57129V2.07129H4.10826V3.57129ZM15.8911 3.57129V5.07129C16.2037 5.07129 16.5035 5.19546 16.7245 5.41648L17.7852 4.35582L18.8458 3.29516C18.0622 2.51153 16.9993 2.07129 15.8911 2.07129V3.57129ZM17.7852 4.35582L16.7245 5.41648C16.9455 5.63751 17.0697 5.93728 17.0697 6.24986H18.5697H20.0697C20.0697 5.14164 19.6294 4.0788 18.8458 3.29516L17.7852 4.35582ZM18.5697 6.24986H17.0697V13.7499H18.5697H20.0697V6.24986H18.5697ZM18.5697 13.7499H17.0697C17.0697 14.0624 16.9455 14.3622 16.7245 14.5832L17.7852 15.6439L18.8458 16.7046C19.6294 15.9209 20.0697 14.8581 20.0697 13.7499H18.5697ZM17.7852 15.6439L16.7245 14.5832C16.5035 14.8043 16.2037 14.9284 15.8911 14.9284V16.4284V17.9284C16.9993 17.9284 18.0622 17.4882 18.8458 16.7046L17.7852 15.6439ZM15.8911 16.4284V14.9284H4.10897V16.4284V17.9284H15.8911V16.4284ZM4.10897 16.4284V14.9284C3.7964 14.9284 3.49662 14.8043 3.2756 14.5832L2.21494 15.6439L1.15428 16.7046C1.93791 17.4882 3.00075 17.9284 4.10897 17.9284V16.4284ZM2.21494 15.6439L3.2756 14.5832C3.05457 14.3622 2.9304 14.0624 2.9304 13.7499H1.4304H-0.0695981C-0.0695981 14.8581 0.370643 15.9209 1.15428 16.7046L2.21494 15.6439ZM1.4304 13.7499L2.9304 13.7497L2.92969 6.24972L1.42969 6.24986L-0.0703125 6.25L-0.0695981 13.75L1.4304 13.7499ZM4.10826 4.64272V3.14272C3.28419 3.14272 2.49388 3.47008 1.91118 4.05278L2.97184 5.11344L4.0325 6.1741C4.05259 6.15401 4.07984 6.14272 4.10826 6.14272V4.64272ZM2.97184 5.11344L1.91118 4.05278C1.32847 4.63548 1.00112 5.42579 1.00112 6.24986H2.50112H4.00112C4.00112 6.22144 4.0124 6.19419 4.0325 6.1741L2.97184 5.11344ZM2.50112 6.24986H1.00112V6.78557H2.50112H4.00112V6.24986H2.50112ZM2.50112 6.78557V8.28557H17.4983V6.78557V5.28557H2.50112V6.78557ZM17.4983 6.78557H18.9983V6.24986H17.4983H15.9983V6.78557H17.4983ZM17.4983 6.24986H18.9983C18.9983 5.42579 18.6709 4.63548 18.0882 4.05278L17.0275 5.11344L15.9669 6.1741C15.987 6.19419 15.9983 6.22145 15.9983 6.24986H17.4983ZM17.0275 5.11344L18.0882 4.05278C17.5055 3.47008 16.7152 3.14272 15.8911 3.14272V4.64272V6.14272C15.9195 6.14272 15.9468 6.15401 15.9669 6.1741L17.0275 5.11344ZM15.8911 4.64272V3.14272H4.10826V4.64272V6.14272H15.8911V4.64272ZM2.50112 13.7499H1.00112C1.00112 14.5739 1.32847 15.3642 1.91118 15.9469L2.97184 14.8863L4.0325 13.8256C4.0124 13.8055 4.00112 13.7783 4.00112 13.7499H2.50112ZM2.97184 14.8863L1.91118 15.9469C2.49388 16.5296 3.28419 16.857 4.10826 16.857V15.357V13.857C4.07984 13.857 4.05259 13.8457 4.0325 13.8256L2.97184 14.8863ZM4.10826 15.357V16.857H15.8911V15.357V13.857H4.10826V15.357ZM15.8911 15.357V16.857C16.7152 16.857 17.5055 16.5296 18.0882 15.9469L17.0275 14.8863L15.9669 13.8256C15.9468 13.8457 15.9195 13.857 15.8911 13.857V15.357ZM17.0275 14.8863L18.0882 15.9469C18.6709 15.3642 18.9983 14.5739 18.9983 13.7499H17.4983H15.9983C15.9983 13.7783 15.987 13.8055 15.9669 13.8256L17.0275 14.8863ZM17.4983 13.7499H18.9983V7.857H17.4983H15.9983V13.7499H17.4983ZM17.4983 7.857V6.357H2.50183V7.857V9.357H17.4983V7.857ZM2.50183 7.857L1.00183 7.85682L1.00112 13.7497L2.50112 13.7499L4.00112 13.75L4.00183 7.85719L2.50183 7.857Z" fill="#D22877" mask="url(#path-1-inside-1_1_17077)"/>
</svg>
