<svg width="24" height="37" viewBox="0 0 24 37" fill="none" xmlns="http://www.w3.org/2000/svg">
<path d="M20.2357 0H3.63205C1.63961 0 0 1.63961 0 3.63205V32.6885C0 34.6809 1.63961 36.3205 3.63205 36.3205H20.2357C22.2282 36.3205 23.8678 34.6809 23.8678 32.6885V3.63205C23.8678 1.63961 22.2282 0 20.2357 0ZM20.7546 32.6885C20.7546 32.979 20.5263 33.2073 20.2357 33.2073H3.63205C3.34149 33.2073 3.11319 32.979 3.11319 32.6885V3.63205C3.11319 3.34149 3.34149 3.11319 3.63205 3.11319H20.2357C20.5263 3.11319 20.7546 3.34149 20.7546 3.63205V32.6885ZM14.0093 26.4621C14.0093 27.6036 13.0754 28.5376 11.9339 28.5376C10.7924 28.5376 9.85843 27.6036 9.85843 26.4621C9.85843 25.3206 10.7924 24.3866 11.9339 24.3866C13.0754 24.3866 14.0093 25.3206 14.0093 26.4621Z" fill="#2A68EF"/>
</svg>
