<svg width="20" height="20" viewBox="0 0 20 20" fill="none" xmlns="http://www.w3.org/2000/svg">
<g clip-path="url(#clip0_1_17062)">
<path d="M3.75 3.75H18.75L16.875 11.875H5.625M16.875 14.375H6.25L3.125 1.25H1.25" stroke="#2A68EF" stroke-width="1.5" stroke-linecap="round" stroke-linejoin="round"/>
<path d="M15.625 18.125C16.3154 18.125 16.875 17.5654 16.875 16.875C16.875 16.1846 16.3154 15.625 15.625 15.625C14.9346 15.625 14.375 16.1846 14.375 16.875C14.375 17.5654 14.9346 18.125 15.625 18.125Z" stroke="#2A68EF" stroke-width="1.5" stroke-linecap="round" stroke-linejoin="round"/>
<path d="M7.5 18.125C8.19036 18.125 8.75 17.5654 8.75 16.875C8.75 16.1846 8.19036 15.625 7.5 15.625C6.80964 15.625 6.25 16.1846 6.25 16.875C6.25 17.5654 6.80964 18.125 7.5 18.125Z" stroke="#2A68EF" stroke-width="1.5" stroke-linecap="round" stroke-linejoin="round"/>
</g>
<defs>
<clipPath id="clip0_1_17062">
<rect width="20" height="20" fill="white"/>
</clipPath>
</defs>
</svg>
