<svg width="20" height="20" viewBox="0 0 20 20" fill="none" xmlns="http://www.w3.org/2000/svg">
<g clip-path="url(#clip0_1_17050)">
<path d="M6.66536 11.6663H13.332M6.66536 8.33301H8.33203M6.66536 14.9997H9.9987M8.33203 2.49967H4.9987C4.55667 2.49967 4.13275 2.67527 3.82019 2.98783C3.50763 3.30039 3.33203 3.72431 3.33203 4.16634V16.6663C3.33203 17.1084 3.50763 17.5323 3.82019 17.8449C4.13275 18.1574 4.55667 18.333 4.9987 18.333H14.9987C15.4407 18.333 15.8646 18.1574 16.1772 17.8449C16.4898 17.5323 16.6654 17.1084 16.6654 16.6663V4.16634C16.6654 3.72431 16.4898 3.30039 16.1772 2.98783C15.8646 2.67527 15.4407 2.49967 14.9987 2.49967H12.082M8.33203 2.49967V0.833008M8.33203 2.49967V4.16634" stroke="#9C3CD3" stroke-width="1.5" stroke-linecap="round" stroke-linejoin="round"/>
</g>
<defs>
<clipPath id="clip0_1_17050">
<rect width="20" height="20" fill="white"/>
</clipPath>
</defs>
</svg>
